<mxfile host="app.diagrams.net" modified="2024-06-20T18:22:04.801Z" agent="Mozilla/5.0 (Windows NT 10.0; Win64; x64) AppleWebKit/537.36 (KHTML, like Gecko) Chrome/126.0.0.0 Safari/537.36" etag="fRahjJI8qDUtZSTq_xCn" version="24.5.5" type="github">
  <diagram name="Page-1" id="S5QRVCeIwL75mSUmaG10">
    <mxGraphModel dx="1050" dy="522" grid="1" gridSize="10" guides="1" tooltips="1" connect="1" arrows="1" fold="1" page="1" pageScale="1" pageWidth="850" pageHeight="1100" math="0" shadow="0">
      <root>
        <mxCell id="0" />
        <mxCell id="1" parent="0" />
        <mxCell id="xV2z-pbj4__Hn_GGm1np-2" value="UC_Operation" style="shape=umlFrame;whiteSpace=wrap;html=1;pointerEvents=0;recursiveResize=0;container=1;collapsible=0;width=110;height=30;" vertex="1" parent="1">
          <mxGeometry x="200" y="120" width="480" height="350" as="geometry" />
        </mxCell>
        <mxCell id="xV2z-pbj4__Hn_GGm1np-10" value="&lt;div&gt;&amp;lt;&amp;lt;Use case&amp;gt;&amp;gt;&lt;/div&gt;&lt;div&gt;Manage Access&lt;/div&gt;" style="ellipse;html=1;whiteSpace=wrap;" vertex="1" parent="xV2z-pbj4__Hn_GGm1np-2">
          <mxGeometry x="45" y="220" width="135" height="70" as="geometry" />
        </mxCell>
        <mxCell id="xV2z-pbj4__Hn_GGm1np-20" style="rounded=0;orthogonalLoop=1;jettySize=auto;html=1;entryX=1;entryY=0.5;entryDx=0;entryDy=0;dashed=1;" edge="1" parent="xV2z-pbj4__Hn_GGm1np-2" source="xV2z-pbj4__Hn_GGm1np-15" target="xV2z-pbj4__Hn_GGm1np-19">
          <mxGeometry relative="1" as="geometry" />
        </mxCell>
        <mxCell id="xV2z-pbj4__Hn_GGm1np-15" value="&lt;div&gt;&amp;lt;&amp;lt;Use case&amp;gt;&amp;gt;&lt;/div&gt;&lt;div&gt;Object detection&lt;/div&gt;" style="ellipse;html=1;whiteSpace=wrap;" vertex="1" parent="xV2z-pbj4__Hn_GGm1np-2">
          <mxGeometry x="320" y="40" width="135" height="70" as="geometry" />
        </mxCell>
        <mxCell id="xV2z-pbj4__Hn_GGm1np-19" value="&lt;div&gt;&amp;lt;&amp;lt;Use case&amp;gt;&amp;gt;&lt;/div&gt;&lt;div&gt;Manage Alert&lt;/div&gt;" style="ellipse;html=1;whiteSpace=wrap;" vertex="1" parent="xV2z-pbj4__Hn_GGm1np-2">
          <mxGeometry x="90" y="50" width="135" height="70" as="geometry" />
        </mxCell>
        <mxCell id="xV2z-pbj4__Hn_GGm1np-21" value="&lt;font style=&quot;font-size: 10px;&quot;&gt;&amp;lt;&amp;lt;extends&amp;gt;&amp;gt;&lt;/font&gt;" style="text;html=1;align=center;verticalAlign=middle;resizable=0;points=[];autosize=1;strokeColor=none;fillColor=none;" vertex="1" parent="xV2z-pbj4__Hn_GGm1np-2">
          <mxGeometry x="240" y="50" width="80" height="30" as="geometry" />
        </mxCell>
        <mxCell id="xV2z-pbj4__Hn_GGm1np-24" value="&lt;div&gt;&amp;lt;&amp;lt;Use case&amp;gt;&amp;gt;&lt;/div&gt;&lt;div&gt;Manage Process&lt;/div&gt;" style="ellipse;html=1;whiteSpace=wrap;" vertex="1" parent="xV2z-pbj4__Hn_GGm1np-2">
          <mxGeometry x="40" y="130" width="135" height="70" as="geometry" />
        </mxCell>
        <mxCell id="xV2z-pbj4__Hn_GGm1np-16" style="rounded=0;orthogonalLoop=1;jettySize=auto;html=1;entryX=1;entryY=0.5;entryDx=0;entryDy=0;exitX=0.5;exitY=0.5;exitDx=0;exitDy=0;exitPerimeter=0;endArrow=none;endFill=0;" edge="1" parent="1" source="xV2z-pbj4__Hn_GGm1np-17" target="xV2z-pbj4__Hn_GGm1np-15">
          <mxGeometry relative="1" as="geometry">
            <mxPoint x="785" y="210" as="sourcePoint" />
          </mxGeometry>
        </mxCell>
        <mxCell id="xV2z-pbj4__Hn_GGm1np-14" style="rounded=0;orthogonalLoop=1;jettySize=auto;html=1;exitX=0.5;exitY=0.5;exitDx=0;exitDy=0;exitPerimeter=0;entryX=0;entryY=0.5;entryDx=0;entryDy=0;endArrow=none;endFill=0;" edge="1" parent="1" source="xV2z-pbj4__Hn_GGm1np-5" target="xV2z-pbj4__Hn_GGm1np-10">
          <mxGeometry relative="1" as="geometry" />
        </mxCell>
        <mxCell id="xV2z-pbj4__Hn_GGm1np-5" value="ATC" style="shape=umlActor;verticalLabelPosition=bottom;verticalAlign=top;html=1;outlineConnect=0;" vertex="1" parent="1">
          <mxGeometry x="90" y="260" width="30" height="60" as="geometry" />
        </mxCell>
        <mxCell id="xV2z-pbj4__Hn_GGm1np-12" style="rounded=0;orthogonalLoop=1;jettySize=auto;html=1;exitX=1;exitY=0;exitDx=0;exitDy=0;entryX=0.5;entryY=0.5;entryDx=0;entryDy=0;entryPerimeter=0;endArrow=none;endFill=0;" edge="1" parent="1" target="xV2z-pbj4__Hn_GGm1np-17">
          <mxGeometry relative="1" as="geometry">
            <mxPoint x="360.31501531401227" y="350.29557542109376" as="sourcePoint" />
            <mxPoint x="785" y="190" as="targetPoint" />
          </mxGeometry>
        </mxCell>
        <mxCell id="xV2z-pbj4__Hn_GGm1np-13" value="&amp;lt;&amp;lt;extends&amp;gt;&amp;gt;" style="edgeLabel;html=1;align=center;verticalAlign=middle;resizable=0;points=[];rotation=-5;" connectable="0" vertex="1" parent="xV2z-pbj4__Hn_GGm1np-12">
          <mxGeometry x="-0.3838" y="-3" relative="1" as="geometry">
            <mxPoint x="-23" y="-12" as="offset" />
          </mxGeometry>
        </mxCell>
        <mxCell id="xV2z-pbj4__Hn_GGm1np-17" value="1. Ground handling and Maintanence Crew&lt;div&gt;&lt;div style=&quot;text-wrap: wrap;&quot;&gt;&lt;span style=&quot;background-color: initial;&quot;&gt;2. Pilot and Crews&lt;/span&gt;&lt;/div&gt;&lt;div style=&quot;text-wrap: wrap;&quot;&gt;&lt;span style=&quot;background-color: initial;&quot;&gt;3. Airport safety and security team&lt;/span&gt;&lt;/div&gt;&lt;/div&gt;" style="shape=umlActor;verticalLabelPosition=bottom;verticalAlign=top;html=1;outlineConnect=0;" vertex="1" parent="1">
          <mxGeometry x="860" y="280" width="30" height="60" as="geometry" />
        </mxCell>
        <mxCell id="xV2z-pbj4__Hn_GGm1np-22" style="rounded=0;orthogonalLoop=1;jettySize=auto;html=1;entryX=0.5;entryY=0.5;entryDx=0;entryDy=0;entryPerimeter=0;endArrow=none;endFill=0;" edge="1" parent="1" source="xV2z-pbj4__Hn_GGm1np-19" target="xV2z-pbj4__Hn_GGm1np-5">
          <mxGeometry relative="1" as="geometry" />
        </mxCell>
        <mxCell id="xV2z-pbj4__Hn_GGm1np-23" style="rounded=0;orthogonalLoop=1;jettySize=auto;html=1;entryX=0.5;entryY=0.5;entryDx=0;entryDy=0;entryPerimeter=0;endArrow=none;endFill=0;" edge="1" parent="1" source="xV2z-pbj4__Hn_GGm1np-19" target="xV2z-pbj4__Hn_GGm1np-17">
          <mxGeometry relative="1" as="geometry" />
        </mxCell>
        <mxCell id="xV2z-pbj4__Hn_GGm1np-25" style="rounded=0;orthogonalLoop=1;jettySize=auto;html=1;entryX=0.5;entryY=0.5;entryDx=0;entryDy=0;entryPerimeter=0;endArrow=none;endFill=0;" edge="1" parent="1" source="xV2z-pbj4__Hn_GGm1np-24" target="xV2z-pbj4__Hn_GGm1np-5">
          <mxGeometry relative="1" as="geometry" />
        </mxCell>
      </root>
    </mxGraphModel>
  </diagram>
</mxfile>
